<mxfile host="65bd71144e">
    <diagram id="RoM_qWed2xNFHR5MzTbU" name="Страница 1">
        <mxGraphModel dx="1653" dy="1872" grid="1" gridSize="10" guides="1" tooltips="1" connect="1" arrows="1" fold="1" page="1" pageScale="1" pageWidth="827" pageHeight="1169" math="0" shadow="0">
            <root>
                <mxCell id="0"/>
                <mxCell id="1" parent="0"/>
                <mxCell id="2" value="Выбрать товары" style="rounded=0;whiteSpace=wrap;html=1;" vertex="1" parent="1">
                    <mxGeometry x="81" y="94" width="120" height="60" as="geometry"/>
                </mxCell>
                <mxCell id="3" value="Добавить товары в корзину" style="rounded=0;whiteSpace=wrap;html=1;" vertex="1" parent="1">
                    <mxGeometry x="261" y="154" width="120" height="60" as="geometry"/>
                </mxCell>
                <mxCell id="4" value="Оплатить заказ" style="rounded=0;whiteSpace=wrap;html=1;" vertex="1" parent="1">
                    <mxGeometry x="621" y="317" width="120" height="60" as="geometry"/>
                </mxCell>
                <mxCell id="5" value="Подтвердить заказ" style="rounded=0;whiteSpace=wrap;html=1;" vertex="1" parent="1">
                    <mxGeometry x="441" y="244" width="120" height="60" as="geometry"/>
                </mxCell>
                <mxCell id="6" value="Отправить заказ на склад&amp;nbsp;" style="rounded=0;whiteSpace=wrap;html=1;" vertex="1" parent="1">
                    <mxGeometry x="798" y="408" width="120" height="60" as="geometry"/>
                </mxCell>
                <mxCell id="7" value="" style="edgeStyle=elbowEdgeStyle;elbow=horizontal;endArrow=classic;html=1;exitX=1;exitY=0.75;exitDx=0;exitDy=0;entryX=0;entryY=0.5;entryDx=0;entryDy=0;" edge="1" parent="1" target="3">
                    <mxGeometry width="50" height="50" relative="1" as="geometry">
                        <mxPoint x="201" y="119" as="sourcePoint"/>
                        <mxPoint x="251" y="188" as="targetPoint"/>
                    </mxGeometry>
                </mxCell>
                <mxCell id="9" value="" style="edgeStyle=elbowEdgeStyle;elbow=horizontal;endArrow=classic;html=1;exitX=1;exitY=0.75;exitDx=0;exitDy=0;entryX=0;entryY=0.5;entryDx=0;entryDy=0;" edge="1" parent="1" target="5">
                    <mxGeometry width="50" height="50" relative="1" as="geometry">
                        <mxPoint x="381" y="188" as="sourcePoint"/>
                        <mxPoint x="441" y="253" as="targetPoint"/>
                    </mxGeometry>
                </mxCell>
                <mxCell id="10" value="" style="edgeStyle=elbowEdgeStyle;elbow=horizontal;endArrow=classic;html=1;exitX=1;exitY=0.75;exitDx=0;exitDy=0;entryX=0;entryY=0.5;entryDx=0;entryDy=0;" edge="1" parent="1" target="4">
                    <mxGeometry width="50" height="50" relative="1" as="geometry">
                        <mxPoint x="561" y="278" as="sourcePoint"/>
                        <mxPoint x="621" y="343" as="targetPoint"/>
                    </mxGeometry>
                </mxCell>
                <mxCell id="12" value="" style="edgeStyle=elbowEdgeStyle;elbow=horizontal;endArrow=classic;html=1;exitX=1;exitY=0.75;exitDx=0;exitDy=0;entryX=0;entryY=0.5;entryDx=0;entryDy=0;" edge="1" parent="1" target="6">
                    <mxGeometry width="50" height="50" relative="1" as="geometry">
                        <mxPoint x="741" y="348" as="sourcePoint"/>
                        <mxPoint x="801" y="417" as="targetPoint"/>
                    </mxGeometry>
                </mxCell>
                <mxCell id="13" value="" style="endArrow=classic;html=1;" edge="1" parent="1">
                    <mxGeometry width="50" height="50" relative="1" as="geometry">
                        <mxPoint y="120" as="sourcePoint"/>
                        <mxPoint x="80" y="120" as="targetPoint"/>
                    </mxGeometry>
                </mxCell>
                <mxCell id="14" value="&lt;br&gt;Намерения&lt;br&gt;&amp;nbsp;покупателя&lt;br&gt;" style="edgeLabel;html=1;align=center;verticalAlign=middle;resizable=0;points=[];" vertex="1" connectable="0" parent="13">
                    <mxGeometry x="-0.075" relative="1" as="geometry">
                        <mxPoint x="-1" y="-26" as="offset"/>
                    </mxGeometry>
                </mxCell>
                <mxCell id="15" value="" style="endArrow=classic;html=1;" edge="1" parent="1">
                    <mxGeometry width="50" height="50" relative="1" as="geometry">
                        <mxPoint x="100" y="12" as="sourcePoint"/>
                        <mxPoint x="100" y="94" as="targetPoint"/>
                    </mxGeometry>
                </mxCell>
                <mxCell id="16" value="" style="endArrow=classic;html=1;" edge="1" parent="1">
                    <mxGeometry width="50" height="50" relative="1" as="geometry">
                        <mxPoint x="190" y="12" as="sourcePoint"/>
                        <mxPoint x="190" y="94" as="targetPoint"/>
                    </mxGeometry>
                </mxCell>
                <mxCell id="21" value="" style="endArrow=classic;html=1;" edge="1" parent="1">
                    <mxGeometry width="50" height="50" relative="1" as="geometry">
                        <mxPoint x="100" y="630" as="sourcePoint"/>
                        <mxPoint x="100" y="154" as="targetPoint"/>
                    </mxGeometry>
                </mxCell>
                <mxCell id="22" value="" style="endArrow=classic;html=1;" edge="1" parent="1">
                    <mxGeometry width="50" height="50" relative="1" as="geometry">
                        <mxPoint x="160" y="630" as="sourcePoint"/>
                        <mxPoint x="160" y="154" as="targetPoint"/>
                    </mxGeometry>
                </mxCell>
                <mxCell id="23" value="Покупатель" style="text;html=1;resizable=0;points=[];autosize=1;align=left;verticalAlign=top;spacingTop=-4;" vertex="1" parent="1">
                    <mxGeometry x="50" y="640" width="80" height="20" as="geometry"/>
                </mxCell>
                <mxCell id="24" value="Сайт&lt;br&gt;" style="text;html=1;resizable=0;points=[];autosize=1;align=left;verticalAlign=top;spacingTop=-4;" vertex="1" parent="1">
                    <mxGeometry x="140" y="640" width="40" height="20" as="geometry"/>
                </mxCell>
                <mxCell id="25" value="&lt;span style=&quot;font-size: 12px ; text-align: left&quot;&gt;Прайс-листы&lt;/span&gt;" style="edgeLabel;html=1;align=center;verticalAlign=middle;resizable=0;points=[];" vertex="1" connectable="0" parent="1">
                    <mxGeometry x="100" y="-7" as="geometry"/>
                </mxCell>
                <mxCell id="26" value="Сведения &lt;br&gt;о наличии" style="edgeLabel;html=1;align=center;verticalAlign=middle;resizable=0;points=[];" vertex="1" connectable="0" parent="1">
                    <mxGeometry x="190" y="-7" as="geometry"/>
                </mxCell>
                <mxCell id="28" value="" style="edgeStyle=elbowEdgeStyle;elbow=horizontal;endArrow=classic;html=1;exitX=1;exitY=0.75;exitDx=0;exitDy=0;" edge="1" parent="1">
                    <mxGeometry width="50" height="50" relative="1" as="geometry">
                        <mxPoint x="190" y="50" as="sourcePoint"/>
                        <mxPoint x="280" y="150" as="targetPoint"/>
                        <Array as="points">
                            <mxPoint x="280" y="80"/>
                        </Array>
                    </mxGeometry>
                </mxCell>
                <mxCell id="29" value="" style="edgeStyle=elbowEdgeStyle;elbow=horizontal;endArrow=classic;html=1;exitX=1;exitY=0.75;exitDx=0;exitDy=0;" edge="1" parent="1">
                    <mxGeometry width="50" height="50" relative="1" as="geometry">
                        <mxPoint x="100" y="408" as="sourcePoint"/>
                        <mxPoint x="280" y="220" as="targetPoint"/>
                        <Array as="points">
                            <mxPoint x="280" y="400"/>
                        </Array>
                    </mxGeometry>
                </mxCell>
                <mxCell id="30" value="" style="edgeStyle=elbowEdgeStyle;elbow=horizontal;endArrow=classic;html=1;exitX=1;exitY=0.75;exitDx=0;exitDy=0;" edge="1" parent="1" target="3">
                    <mxGeometry width="50" height="50" relative="1" as="geometry">
                        <mxPoint x="160" y="448" as="sourcePoint"/>
                        <mxPoint x="340" y="260" as="targetPoint"/>
                        <Array as="points">
                            <mxPoint x="340" y="440"/>
                        </Array>
                    </mxGeometry>
                </mxCell>
                <mxCell id="31" value="" style="endArrow=classic;html=1;exitX=0.225;exitY=-0.05;exitDx=0;exitDy=0;exitPerimeter=0;" edge="1" parent="1">
                    <mxGeometry width="50" height="50" relative="1" as="geometry">
                        <mxPoint x="520" y="639" as="sourcePoint"/>
                        <mxPoint x="521" y="304" as="targetPoint"/>
                        <Array as="points">
                            <mxPoint x="521" y="480"/>
                        </Array>
                    </mxGeometry>
                </mxCell>
                <mxCell id="32" value="Менеджер&lt;br&gt;" style="text;html=1;resizable=0;points=[];autosize=1;align=left;verticalAlign=top;spacingTop=-4;" vertex="1" parent="1">
                    <mxGeometry x="492" y="640" width="80" height="20" as="geometry"/>
                </mxCell>
                <mxCell id="33" value="" style="edgeStyle=elbowEdgeStyle;elbow=horizontal;endArrow=classic;html=1;exitX=1;exitY=0.75;exitDx=0;exitDy=0;" edge="1" parent="1">
                    <mxGeometry width="50" height="50" relative="1" as="geometry">
                        <mxPoint x="240" y="50" as="sourcePoint"/>
                        <mxPoint x="514" y="240" as="targetPoint"/>
                        <Array as="points">
                            <mxPoint x="514" y="70"/>
                        </Array>
                    </mxGeometry>
                </mxCell>
                <mxCell id="34" value="" style="edgeStyle=elbowEdgeStyle;elbow=horizontal;endArrow=classic;html=1;exitX=1;exitY=0.75;exitDx=0;exitDy=0;" edge="1" parent="1">
                    <mxGeometry width="50" height="50" relative="1" as="geometry">
                        <mxPoint x="100" y="30" as="sourcePoint"/>
                        <mxPoint x="460" y="241" as="targetPoint"/>
                        <Array as="points">
                            <mxPoint x="460" y="21"/>
                        </Array>
                    </mxGeometry>
                </mxCell>
                <mxCell id="35" value="" style="endArrow=classic;html=1;entryX=0.933;entryY=-0.017;entryDx=0;entryDy=0;entryPerimeter=0;" edge="1" parent="1" target="5">
                    <mxGeometry width="50" height="50" relative="1" as="geometry">
                        <mxPoint x="553" y="10" as="sourcePoint"/>
                        <mxPoint x="553" y="120" as="targetPoint"/>
                    </mxGeometry>
                </mxCell>
                <mxCell id="36" value="Планы &lt;br&gt;продаж" style="text;html=1;resizable=0;points=[];autosize=1;align=left;verticalAlign=top;spacingTop=-4;" vertex="1" parent="1">
                    <mxGeometry x="530" y="-20" width="60" height="30" as="geometry"/>
                </mxCell>
                <mxCell id="37" value="" style="edgeStyle=elbowEdgeStyle;elbow=horizontal;endArrow=classic;html=1;exitX=1;exitY=0.75;exitDx=0;exitDy=0;" edge="1" parent="1" target="5">
                    <mxGeometry width="50" height="50" relative="1" as="geometry">
                        <mxPoint x="100" y="532" as="sourcePoint"/>
                        <mxPoint x="280" y="344" as="targetPoint"/>
                        <Array as="points">
                            <mxPoint x="450" y="520"/>
                        </Array>
                    </mxGeometry>
                </mxCell>
                <mxCell id="38" value="" style="edgeStyle=elbowEdgeStyle;elbow=horizontal;endArrow=classic;html=1;exitX=1;exitY=0.75;exitDx=0;exitDy=0;" edge="1" parent="1">
                    <mxGeometry width="50" height="50" relative="1" as="geometry">
                        <mxPoint x="161" y="542" as="sourcePoint"/>
                        <mxPoint x="491" y="304" as="targetPoint"/>
                        <Array as="points">
                            <mxPoint x="491" y="542"/>
                        </Array>
                    </mxGeometry>
                </mxCell>
                <mxCell id="39" value="" style="endArrow=classic;html=1;entryX=0.817;entryY=0;entryDx=0;entryDy=0;entryPerimeter=0;" edge="1" parent="1" target="4">
                    <mxGeometry width="50" height="50" relative="1" as="geometry">
                        <mxPoint x="720" y="5" as="sourcePoint"/>
                        <mxPoint x="720.96" y="298.02" as="targetPoint"/>
                    </mxGeometry>
                </mxCell>
                <mxCell id="40" value="Нормативные акты &lt;br&gt;" style="text;html=1;resizable=0;points=[];autosize=1;align=left;verticalAlign=top;spacingTop=-4;" vertex="1" parent="1">
                    <mxGeometry x="660" y="-20" width="130" height="20" as="geometry"/>
                </mxCell>
                <mxCell id="41" value="" style="edgeStyle=elbowEdgeStyle;elbow=horizontal;endArrow=classic;html=1;exitX=1;exitY=0.75;exitDx=0;exitDy=0;" edge="1" parent="1">
                    <mxGeometry width="50" height="50" relative="1" as="geometry">
                        <mxPoint x="280" y="30" as="sourcePoint"/>
                        <mxPoint x="640" y="316" as="targetPoint"/>
                        <Array as="points">
                            <mxPoint x="640" y="21"/>
                        </Array>
                    </mxGeometry>
                </mxCell>
                <mxCell id="42" value="" style="endArrow=classic;html=1;" edge="1" parent="1">
                    <mxGeometry width="50" height="50" relative="1" as="geometry">
                        <mxPoint x="670" y="627" as="sourcePoint"/>
                        <mxPoint x="670" y="377" as="targetPoint"/>
                        <Array as="points">
                            <mxPoint x="670" y="553"/>
                        </Array>
                    </mxGeometry>
                </mxCell>
                <mxCell id="43" value="Бухгалтерия" style="text;html=1;resizable=0;points=[];autosize=1;align=left;verticalAlign=top;spacingTop=-4;" vertex="1" parent="1">
                    <mxGeometry x="606" y="640" width="90" height="20" as="geometry"/>
                </mxCell>
                <mxCell id="44" value="" style="endArrow=classic;html=1;" edge="1" parent="1">
                    <mxGeometry width="50" height="50" relative="1" as="geometry">
                        <mxPoint x="717" y="630" as="sourcePoint"/>
                        <mxPoint x="717" y="380" as="targetPoint"/>
                        <Array as="points">
                            <mxPoint x="717" y="556"/>
                        </Array>
                    </mxGeometry>
                </mxCell>
                <mxCell id="45" value="Билинг" style="text;html=1;resizable=0;points=[];autosize=1;align=left;verticalAlign=top;spacingTop=-4;" vertex="1" parent="1">
                    <mxGeometry x="696" y="640" width="60" height="20" as="geometry"/>
                </mxCell>
                <mxCell id="46" value="" style="edgeStyle=elbowEdgeStyle;elbow=horizontal;endArrow=classic;html=1;exitX=1;exitY=0.75;exitDx=0;exitDy=0;" edge="1" parent="1">
                    <mxGeometry width="50" height="50" relative="1" as="geometry">
                        <mxPoint x="300" y="542" as="sourcePoint"/>
                        <mxPoint x="650" y="380" as="targetPoint"/>
                        <Array as="points">
                            <mxPoint x="650" y="542"/>
                        </Array>
                    </mxGeometry>
                </mxCell>
                <mxCell id="47" value="" style="edgeStyle=elbowEdgeStyle;elbow=horizontal;endArrow=classic;html=1;exitX=1;exitY=0.75;exitDx=0;exitDy=0;entryX=0.117;entryY=1;entryDx=0;entryDy=0;entryPerimeter=0;" edge="1" parent="1" target="4">
                    <mxGeometry width="50" height="50" relative="1" as="geometry">
                        <mxPoint x="261" y="532" as="sourcePoint"/>
                        <mxPoint x="611" y="304" as="targetPoint"/>
                        <Array as="points">
                            <mxPoint x="635" y="460"/>
                        </Array>
                    </mxGeometry>
                </mxCell>
                <mxCell id="48" value="" style="edgeStyle=elbowEdgeStyle;elbow=horizontal;endArrow=classic;html=1;exitX=1;exitY=0.75;exitDx=0;exitDy=0;" edge="1" parent="1" target="6">
                    <mxGeometry width="50" height="50" relative="1" as="geometry">
                        <mxPoint x="520" y="605" as="sourcePoint"/>
                        <mxPoint x="870" y="480" as="targetPoint"/>
                        <Array as="points">
                            <mxPoint x="870" y="593"/>
                        </Array>
                    </mxGeometry>
                </mxCell>
                <mxCell id="49" value="" style="edgeStyle=elbowEdgeStyle;elbow=horizontal;endArrow=classic;html=1;exitX=1;exitY=0.75;exitDx=0;exitDy=0;" edge="1" parent="1">
                    <mxGeometry width="50" height="50" relative="1" as="geometry">
                        <mxPoint x="506" y="542" as="sourcePoint"/>
                        <mxPoint x="856" y="471" as="targetPoint"/>
                        <Array as="points">
                            <mxPoint x="856" y="530"/>
                        </Array>
                    </mxGeometry>
                </mxCell>
                <mxCell id="50" value="" style="edgeStyle=elbowEdgeStyle;elbow=horizontal;endArrow=classic;html=1;exitX=1;exitY=0.75;exitDx=0;exitDy=0;entryX=0.25;entryY=0;entryDx=0;entryDy=0;" edge="1" parent="1" target="6">
                    <mxGeometry width="50" height="50" relative="1" as="geometry">
                        <mxPoint x="250" y="50" as="sourcePoint"/>
                        <mxPoint x="524" y="240" as="targetPoint"/>
                        <Array as="points">
                            <mxPoint x="828" y="380"/>
                            <mxPoint x="830" y="50"/>
                        </Array>
                    </mxGeometry>
                </mxCell>
                <mxCell id="51" value="" style="edgeStyle=elbowEdgeStyle;elbow=horizontal;endArrow=classic;html=1;exitX=1;exitY=0.75;exitDx=0;exitDy=0;entryX=0.5;entryY=0;entryDx=0;entryDy=0;" edge="1" parent="1" target="6">
                    <mxGeometry width="50" height="50" relative="1" as="geometry">
                        <mxPoint x="450" y="30" as="sourcePoint"/>
                        <mxPoint x="860" y="400" as="targetPoint"/>
                        <Array as="points">
                            <mxPoint x="858" y="390"/>
                            <mxPoint x="860" y="210"/>
                        </Array>
                    </mxGeometry>
                </mxCell>
                <mxCell id="52" value="" style="edgeStyle=elbowEdgeStyle;elbow=horizontal;endArrow=classic;html=1;exitX=1;exitY=0.75;exitDx=0;exitDy=0;entryX=0.75;entryY=0;entryDx=0;entryDy=0;" edge="1" parent="1" target="6">
                    <mxGeometry width="50" height="50" relative="1" as="geometry">
                        <mxPoint x="720" y="10" as="sourcePoint"/>
                        <mxPoint x="994" y="200" as="targetPoint"/>
                        <Array as="points">
                            <mxPoint x="888" y="380"/>
                            <mxPoint x="890" y="20"/>
                        </Array>
                    </mxGeometry>
                </mxCell>
                <mxCell id="53" value="" style="endArrow=classic;html=1;" edge="1" parent="1">
                    <mxGeometry width="50" height="50" relative="1" as="geometry">
                        <mxPoint x="918" y="438" as="sourcePoint"/>
                        <mxPoint x="1078" y="438" as="targetPoint"/>
                    </mxGeometry>
                </mxCell>
                <mxCell id="54" value="Отправка заказа на склад" style="text;html=1;resizable=0;points=[];autosize=1;align=left;verticalAlign=top;spacingTop=-4;" vertex="1" parent="1">
                    <mxGeometry x="938" y="408" width="170" height="20" as="geometry"/>
                </mxCell>
            </root>
        </mxGraphModel>
    </diagram>
</mxfile>